<svg width="18" height="22" viewBox="0 0 18 22" fill="none" xmlns="http://www.w3.org/2000/svg">
<path d="M17.9709 18.5136L15.9032 6.51034C15.8456 6.17234 15.6702 5.86567 15.4079 5.64475C15.1457 5.42384 14.8137 5.30296 14.4709 5.30357H12.8616V3.86143C12.8616 2.83732 12.4548 1.85515 11.7306 1.13099C11.0065 0.406828 10.0243 0 9.00021 0C7.97609 0 6.99392 0.406828 6.26976 1.13099C5.5456 1.85515 5.13877 2.83732 5.13877 3.86143V5.30357H3.52953C3.18666 5.30296 2.85466 5.42384 2.59245 5.64475C2.33023 5.86567 2.15476 6.17234 2.09718 6.51034L0.0277917 18.5247C-0.0307024 18.956 0.00337916 19.3948 0.127766 19.8119C0.252153 20.2291 0.46399 20.6149 0.749166 20.9437C1.03434 21.2725 1.38631 21.5368 1.78163 21.7189C2.17694 21.9011 2.60653 21.9969 3.04178 22L14.9587 22C15.3949 21.997 15.8255 21.9009 16.2215 21.7181C16.6176 21.5352 16.97 21.2698 17.2552 20.9397C17.5404 20.6096 17.7518 20.2224 17.8752 19.804C17.9987 19.3856 18.0313 18.9456 17.9709 18.5136ZM5.92448 3.86143C6.0698 -0.212859 11.9361 -0.204887 12.0759 3.86149V5.30357H5.92448V3.86143ZM16.6653 20.4355C16.4533 20.68 16.1912 20.8761 15.8967 21.0105C15.6022 21.1449 15.2823 21.2144 14.9587 21.2143H3.04174C2.71981 21.2118 2.40207 21.1411 2.10953 21.0066C1.81699 20.8722 1.55632 20.6772 1.34477 20.4346C1.13321 20.1919 0.975592 19.9071 0.882328 19.5989C0.789063 19.2908 0.762282 18.9663 0.803755 18.6471L2.8714 6.64387C2.89788 6.48856 2.97852 6.34766 3.09899 6.24614C3.21947 6.14463 3.37201 6.08906 3.52955 6.0893H14.4709C14.6284 6.08906 14.7809 6.14463 14.9014 6.24614C15.0219 6.34766 15.1025 6.48856 15.129 6.64387L17.195 18.636C17.2408 18.9564 17.2172 19.2829 17.1258 19.5933C17.0344 19.9038 16.8774 20.191 16.6653 20.4355Z" fill="white"/>
<path d="M12.4688 7.42505C12.3646 7.42506 12.2647 7.46645 12.191 7.54012C12.1173 7.6138 12.076 7.71372 12.0759 7.81791V8.5923C11.9355 12.6592 6.06955 12.666 5.92451 8.59225V7.81791C5.92333 7.71449 5.88142 7.61571 5.80787 7.543C5.73432 7.47029 5.63507 7.42951 5.53165 7.42951C5.42823 7.42951 5.32898 7.47029 5.25543 7.543C5.18188 7.61571 5.13997 7.71449 5.13879 7.81791V8.59228C5.34295 13.7164 12.6659 13.7054 12.8617 8.59224V7.81787C12.8616 7.71368 12.8202 7.61377 12.7466 7.54011C12.6729 7.46644 12.573 7.42506 12.4688 7.42505Z" fill="white"/>
</svg>
